<?xml version="1.0" standalone="no"?>
<!DOCTYPE svg PUBLIC "-//W3C//DTD SVG 20010904//EN"
 "http://www.w3.org/TR/2001/REC-SVG-20010904/DTD/svg10.dtd">
<svg version="1.0" xmlns="http://www.w3.org/2000/svg"
 width="325.000000pt" height="325.000000pt" viewBox="0 0 325.000000 325.000000"
 preserveAspectRatio="xMidYMid meet">
<metadata>
Created by potrace 1.11, written by Peter Selinger 2001-2013
</metadata>
<g transform="translate(0.000000,325.000000) scale(0.100000,-0.100000)"
fill="#000000" stroke="none">
<path d="M1577 2724 c-1 -1 -24 -4 -52 -7 -27 -3 -60 -8 -71 -11 -12 -2 -37
-7 -56 -10 -20 -3 -47 -10 -62 -15 -14 -6 -26 -8 -26 -6 0 3 -11 -2 -25 -11
-14 -9 -25 -13 -25 -10 0 4 -17 -1 -37 -12 -21 -10 -67 -34 -103 -52 -136 -68
-268 -181 -368 -315 -23 -30 -102 -163 -102 -171 0 -5 -6 -21 -14 -35 -18 -35
-53 -141 -66 -204 -20 -88 -23 -128 -23 -240 1 -107 3 -134 17 -205 4 -19 8
-42 10 -50 2 -8 5 -22 8 -30 3 -8 18 -51 34 -95 15 -44 39 -100 52 -125 14
-25 30 -54 36 -65 6 -11 13 -22 16 -25 3 -3 19 -25 35 -49 69 -103 231 -243
366 -319 45 -25 222 -92 258 -97 14 -2 37 -7 51 -10 69 -16 114 -20 215 -18
157 2 208 10 335 53 107 35 190 71 190 82 0 4 6 8 12 8 38 0 208 140 303 250
50 58 164 251 170 290 1 3 8 21 16 40 15 34 38 115 45 155 1 11 6 40 10 65 9
53 9 262 0 305 -3 17 -8 44 -12 60 -26 129 -95 290 -176 410 -57 83 -189 216
-267 269 -55 36 -208 114 -286 146 -30 13 -85 28 -130 35 -22 4 -51 9 -65 12
-22 4 -209 10 -213 7z"/>
</g>
</svg>
